<svg id="Layer_1" data-name="Layer 1" xmlns="http://www.w3.org/2000/svg" viewBox="0 0 1085 247"><defs><style>.cls-1{fill:#6b8e3c;}.cls-2{fill:#2e375b;}</style></defs><title>2</title><rect class="cls-1" x="40.85" y="59.57" width="29.26" height="77.86"/><path class="cls-2" d="M342.55,59.57H189.15V88.83h53.07v93h29.26v-93h55.68A56.38,56.38,0,0,1,342.55,59.57Z"/><path class="cls-2" d="M382.27,88.83H472.5V59.57H382.27a39.75,39.75,0,0,0-39.72,39.71v38.15h29.26V99.28A10.46,10.46,0,0,1,382.27,88.83Z"/><path class="cls-2" d="M141.53,59.57v82.56a10.46,10.46,0,0,1-10.45,10.45H42.29a39.76,39.76,0,0,0,38.28,29.26h50.51a39.76,39.76,0,0,0,39.72-39.72V59.57Z"/><path class="cls-2" d="M382.27,181.84H472.5V152.58H344A39.75,39.75,0,0,0,382.27,181.84Z"/><path class="cls-2" d="M649.67,72.43q4.84,4.08,4.85,11.22t-4.85,11.19q-4.85,4.05-13.39,4h-12V113h-4.72V68.35h16.71Q644.82,68.35,649.67,72.43Zm-3.38,19.42a10,10,0,0,0,3.51-8.19q0-5.42-3.51-8.32t-10.14-2.9H624.29V94.75h11.86Q642.78,94.75,646.29,91.85Z"/><path class="cls-2" d="M695.2,113,685,98.64a32.45,32.45,0,0,1-3.57.19h-12V113h-4.72V68.35h16.71q8.54,0,13.39,4.08t4.85,11.22A14.51,14.51,0,0,1,697,92.48a14.66,14.66,0,0,1-7.56,5.2l10.9,15.3Zm-3.76-21.11a10.13,10.13,0,0,0,3.51-8.22q0-5.42-3.51-8.32t-10.14-2.9H669.44V94.81H681.3Q687.93,94.81,691.43,91.88Z"/><path class="cls-2" d="M718.31,110.4a21.64,21.64,0,0,1-8.42-8.13,23.74,23.74,0,0,1,0-23.21,21.64,21.64,0,0,1,8.42-8.13,25.84,25.84,0,0,1,24,0A21.71,21.71,0,0,1,750.67,79a23.65,23.65,0,0,1,0,23.27,21.7,21.7,0,0,1-8.38,8.13,25.84,25.84,0,0,1-24,0Zm21.58-3.63a17.31,17.31,0,0,0,6.7-6.63,19.71,19.71,0,0,0,0-18.94,17.32,17.32,0,0,0-6.7-6.63,20.39,20.39,0,0,0-19.16,0A17.47,17.47,0,0,0,714,81.2a19.49,19.49,0,0,0,0,18.94,17.46,17.46,0,0,0,6.76,6.63,20.39,20.39,0,0,0,19.16,0Z"/><path class="cls-2" d="M771.74,110.43a21.46,21.46,0,0,1-8.35-8.13,23.87,23.87,0,0,1,0-23.27,21.41,21.41,0,0,1,8.38-8.13,24.55,24.55,0,0,1,12-2.93,24.83,24.83,0,0,1,9.18,1.66,19,19,0,0,1,7.14,4.85l-3,3a17.78,17.78,0,0,0-13.2-5.29,19.4,19.4,0,0,0-9.63,2.42,17.7,17.7,0,0,0-6.79,6.63,19.36,19.36,0,0,0,0,18.87,17.69,17.69,0,0,0,6.79,6.63,19.39,19.39,0,0,0,9.63,2.42,17.54,17.54,0,0,0,13.2-5.36l3,3a19.3,19.3,0,0,1-7.17,4.88,24.65,24.65,0,0,1-9.21,1.69A24.35,24.35,0,0,1,771.74,110.43Z"/><path class="cls-2" d="M841.72,108.9V113H810.16V68.35h30.61v4.08H814.87V88.31H838v4H814.87V108.9Z"/><path class="cls-2" d="M855.59,111.77a17.49,17.49,0,0,1-7-4.21l1.85-3.63a17.66,17.66,0,0,0,6.44,3.92,23.5,23.5,0,0,0,8.29,1.5q6,0,9-2.2a6.78,6.78,0,0,0,3-5.71,5.71,5.71,0,0,0-1.63-4.27,11,11,0,0,0-4-2.46,64.35,64.35,0,0,0-6.57-1.88,68.68,68.68,0,0,1-8-2.46,13.17,13.17,0,0,1-5.13-3.6,9.57,9.57,0,0,1-2.14-6.57,11.13,11.13,0,0,1,1.79-6.15,12.22,12.22,0,0,1,5.48-4.43A22.44,22.44,0,0,1,866.07,68,27,27,0,0,1,873.57,69a21.54,21.54,0,0,1,6.34,2.9l-1.59,3.76a22,22,0,0,0-6-2.77,22.41,22.41,0,0,0-6.25-.92q-5.87,0-8.83,2.26a7,7,0,0,0-3,5.83,5.82,5.82,0,0,0,1.63,4.3A10.65,10.65,0,0,0,860,86.87q2.45.86,6.6,1.88a66.31,66.31,0,0,1,7.94,2.39,13,13,0,0,1,5.13,3.57,9.45,9.45,0,0,1,2.1,6.47,11,11,0,0,1-1.82,6.15,12.22,12.22,0,0,1-5.58,4.4,23.31,23.31,0,0,1-9.25,1.63A28.67,28.67,0,0,1,855.59,111.77Z"/><path class="cls-2" d="M894.8,111.77a17.49,17.49,0,0,1-7-4.21l1.85-3.63a17.66,17.66,0,0,0,6.44,3.92,23.5,23.5,0,0,0,8.29,1.5q6,0,9-2.2a6.78,6.78,0,0,0,3-5.71,5.71,5.71,0,0,0-1.63-4.27,11,11,0,0,0-4-2.46,64.36,64.36,0,0,0-6.57-1.88,68.69,68.69,0,0,1-8-2.46,13.17,13.17,0,0,1-5.13-3.6,9.57,9.57,0,0,1-2.14-6.57,11.13,11.13,0,0,1,1.79-6.15,12.22,12.22,0,0,1,5.48-4.43A22.44,22.44,0,0,1,905.29,68,27,27,0,0,1,912.78,69a21.54,21.54,0,0,1,6.34,2.9l-1.59,3.76a22,22,0,0,0-6-2.77,22.41,22.41,0,0,0-6.25-.92q-5.87,0-8.83,2.26a7,7,0,0,0-3,5.83,5.82,5.82,0,0,0,1.63,4.3,10.65,10.65,0,0,0,4.08,2.49q2.45.86,6.6,1.88a66.31,66.31,0,0,1,7.94,2.39,13,13,0,0,1,5.13,3.57,9.45,9.45,0,0,1,2.1,6.47,11,11,0,0,1-1.82,6.15,12.22,12.22,0,0,1-5.58,4.4,23.31,23.31,0,0,1-9.25,1.63A28.67,28.67,0,0,1,894.8,111.77Z"/><path class="cls-2" d="M931.24,68.35H936V113h-4.72Z"/><path class="cls-2" d="M987.79,68.35V113H983.9L955.21,76.77V113h-4.72V68.35h3.89l28.76,36.22V68.35Z"/><path class="cls-2" d="M1033.76,90.67h4.53v17a21.81,21.81,0,0,1-7.4,4.21,27.48,27.48,0,0,1-9,1.47,24.66,24.66,0,0,1-12.05-2.93,21.63,21.63,0,0,1-8.42-8.13,23.65,23.65,0,0,1,0-23.27,21.64,21.64,0,0,1,8.42-8.13A24.8,24.8,0,0,1,1022,68a26.15,26.15,0,0,1,9.37,1.63,18.64,18.64,0,0,1,7.21,4.81l-2.93,3a18.34,18.34,0,0,0-13.45-5.23,20,20,0,0,0-9.79,2.39,17.57,17.57,0,0,0-6.85,6.63,19.21,19.21,0,0,0,0,18.91,17.93,17.93,0,0,0,6.82,6.63,19.65,19.65,0,0,0,9.76,2.42,19.44,19.44,0,0,0,11.67-3.44Z"/><path class="cls-1" d="M651.14,175.45v4.08H619.58V134.89h30.61V139H624.29v15.88h23.08v4H624.29v16.58Z"/><path class="cls-1" d="M706.93,183.29a13.78,13.78,0,0,1-4.81,3.79,14,14,0,0,1-6,1.31,15.33,15.33,0,0,1-7.49-1.94,35.09,35.09,0,0,1-7.94-6.54,24.15,24.15,0,0,1-11.6-3.19,21.76,21.76,0,0,1-8.1-8.1,23.7,23.7,0,0,1,.1-23,21.64,21.64,0,0,1,8.42-8.13,25.84,25.84,0,0,1,24,0,21.72,21.72,0,0,1,8.38,8.13,22.49,22.49,0,0,1,3.06,11.64,22.83,22.83,0,0,1-2.33,10.3,21.65,21.65,0,0,1-6.5,7.81,22.83,22.83,0,0,1-9.6,4.14q4.91,5.17,9.69,5.16a10.8,10.8,0,0,0,8.48-4.08Zm-41.8-16.64a17.76,17.76,0,0,0,6.76,6.63,20.14,20.14,0,0,0,19.16,0,17.61,17.61,0,0,0,6.7-6.63,19.59,19.59,0,0,0,0-18.87,17.61,17.61,0,0,0-6.7-6.63,20.14,20.14,0,0,0-19.16,0,17.76,17.76,0,0,0-6.76,6.63,19.36,19.36,0,0,0,0,18.87Z"/><path class="cls-1" d="M719.93,174.94q-4.85-5-4.85-14.47V134.89h4.72v25.38q0,7.78,3.51,11.6t10.14,3.83q6.7,0,10.2-3.83t3.51-11.6V134.89h4.59v25.57q0,9.5-4.81,14.47t-13.49,5Q724.78,179.91,719.93,174.94Z"/><path class="cls-1" d="M766,134.89h4.72v44.63H766Z"/><path class="cls-1" d="M815.32,139q4.84,4.08,4.85,11.22t-4.85,11.19q-4.85,4-13.39,4h-12v14.09h-4.72V134.89h16.71Q810.47,134.89,815.32,139Zm-3.38,19.41a10,10,0,0,0,3.51-8.19q0-5.42-3.51-8.32T801.8,139H789.94v22.32H801.8Q808.43,161.29,811.94,158.39Z"/><path class="cls-1" d="M876.72,134.89v44.63h-4.53V143.82l-17.53,30h-2.23L834.89,144v35.51h-4.53V134.89h3.89L853.64,168l19.19-33.09Z"/><path class="cls-1" d="M922.82,175.45v4.08H891.26V134.89h30.61V139H896v15.88h23.08v4H896v16.58Z"/><path class="cls-1" d="M971.21,134.89v44.63h-3.89l-28.69-36.22v36.22h-4.72V134.89h3.89l28.76,36.22V134.89Z"/><path class="cls-1" d="M994.42,139H978.74v-4.08h36.09V139H999.14v40.55h-4.72Z"/><rect class="cls-2" x="542.74" y="30.8" width="3.47" height="179.82"/></svg>