<svg width="65" height="68" viewBox="0 0 65 68" fill="none" xmlns="http://www.w3.org/2000/svg">
<mask id="mask0_2731_3" style="mask-type:luminance" maskUnits="userSpaceOnUse" x="0" y="0" width="65" height="68">
<path d="M46.94 54.85L33.99 44.04C33.77 43.86 33.48 43.75 33.17 43.76C32.79 43.76 32.46 43.95 32.24 44.22L29.54 47.46C29.35 47.69 29.24 47.98 29.24 48.3C29.24 48.66 29.41 48.97 29.65 49.2V49.22L51.64 67.57C51.86 67.75 52.14 67.85 52.45 67.84C53.06 67.83 53.56 67.37 53.65 66.79L58.53 38.66C58.54 38.58 58.55 38.49 58.55 38.41C58.54 37.78 58.05 37.26 57.43 37.2L53.37 36.5C53.29 36.49 53.2 36.48 53.12 36.48C52.5 36.49 51.99 36.96 51.92 37.56L49.04 54.18C48.93 54.75 48.44 55.18 47.85 55.19C47.52 55.19 47.21 55.07 46.98 54.87M14.27 25.15L30.11 19.33C30.38 19.22 30.62 19.03 30.77 18.76C30.95 18.43 30.97 18.05 30.84 17.72L29.39 13.76C29.29 13.48 29.09 13.24 28.82 13.09C28.51 12.92 28.15 12.9 27.84 13H27.82L0.929997 22.86C0.669997 22.96 0.439997 23.15 0.289997 23.42C-3.06964e-06 23.96 0.139997 24.62 0.599997 24.99L22.52 43.28C22.58 43.33 22.65 43.38 22.73 43.42C23.29 43.72 23.97 43.56 24.33 43.06L26.97 39.89C27.02 39.82 27.07 39.76 27.11 39.68C27.41 39.13 27.25 38.46 26.77 38.1L13.81 27.29C13.37 26.91 13.24 26.27 13.53 25.75C13.69 25.46 13.95 25.25 14.24 25.16L14.27 25.15ZM54.63 10.45L38.78 16.23C38.51 16.32 38.2 16.33 37.91 16.22C37.56 16.08 37.3 15.8 37.18 15.47L35.73 11.51C35.63 11.23 35.62 10.92 35.73 10.62C35.86 10.29 36.11 10.04 36.42 9.92V9.9L63.34 0.0899986C63.61 -1.39326e-06 63.91 -1.39326e-06 64.19 0.109999C64.76 0.329999 65.08 0.929999 64.96 1.51L60.03 29.63C60.02 29.71 59.99 29.79 59.96 29.87C59.73 30.46 59.1 30.78 58.5 30.63L54.44 29.92C54.36 29.9 54.27 29.88 54.19 29.85C53.61 29.63 53.29 29.01 53.42 28.42L56.34 11.8C56.43 11.23 56.12 10.66 55.56 10.44C55.25 10.32 54.92 10.33 54.63 10.45Z" fill="white"/>
</mask>
<g mask="url(#mask0_2731_3)">
<path d="M65.07 0H0V67.83H65.07V0Z" fill="url(#paint0_linear_2731_3)"/>
</g>
<defs>
<linearGradient id="paint0_linear_2731_3" x1="33.18" y1="61.87" x2="31.99" y2="10.2" gradientUnits="userSpaceOnUse">
<stop stop-color="#3FD1FF"/>
<stop offset="1" stop-color="#216EA8"/>
</linearGradient>
</defs>
</svg>
