<svg width="225" height="35" viewBox="0 0 225 35" fill="none" xmlns="http://www.w3.org/2000/svg">
<path d="M214.36 0.0218026C211.213 0.339651 208.843 1.61104 207.249 3.84413C205.337 6.51732 205.239 10.8775 207.045 13.5833C208.435 15.6697 210.813 17.0715 213.526 17.4138C214.532 17.5442 217.082 17.4709 217.834 17.2997C219.803 16.8433 221.25 16.0935 222.509 14.871C223.751 13.6567 224.519 12.1734 224.83 10.3885C225.018 9.31276 224.952 7.21822 224.699 6.24837C223.865 3.04544 221.299 0.796049 217.768 0.168502C217.065 0.0462524 215.006 -0.0433971 214.36 0.0218026ZM216.91 3.44479C218.496 3.85228 219.648 5.09923 220.13 6.94112C220.359 7.81316 220.384 9.6795 220.171 10.5271C219.934 11.4888 219.517 12.2467 218.863 12.8987C217.94 13.8197 216.861 14.2353 215.382 14.2353C213.624 14.2353 212.26 13.5507 211.344 12.2223C210.502 10.9916 210.192 9.14976 210.527 7.38936C210.69 6.53362 210.895 6.02017 211.344 5.34373C212.317 3.87673 213.837 3.17584 215.766 3.28179C216.142 3.30624 216.648 3.37959 216.91 3.44479Z" fill="#213459"/>
<path d="M146.617 34.664C148.235 34.4684 149.87 34.0691 151.251 33.5312C157.365 31.1514 161.116 26.2125 161.075 20.6135C161.067 20.1 161.051 19.7496 161.026 19.8392C161.01 19.9289 160.936 20.2956 160.871 20.6542C159.955 25.5524 156.155 29.5947 150.826 31.3551C148.955 31.9745 147.099 32.2435 145.203 32.1538C144.116 32.1131 142.522 31.9012 142.302 31.7871C142.245 31.7545 142.588 31.6485 143.078 31.5426C146.642 30.8009 150.287 29.2687 152.534 27.5817C153.679 26.726 153.695 26.6934 152.788 27.0845C148.619 28.8938 143.928 29.937 139.466 30.043L137.668 30.0837L137.096 29.7333C136.213 29.2035 134.447 27.8262 134.537 27.7447C134.554 27.7284 135.224 27.6795 136.033 27.6306C141.942 27.2475 147.099 26.1392 151.766 24.2484C152.78 23.8327 155.624 22.4798 155.575 22.4309C155.558 22.4146 154.986 22.545 154.292 22.7243C150.066 23.8164 144.647 24.5988 138.444 25.0145C136.523 25.1367 133.393 25.2997 132.731 25.2997C132.584 25.2997 131.922 24.0935 131.538 23.14L131.26 22.4472L131.44 22.3983C131.538 22.3739 132.118 22.325 132.723 22.2924C138.46 21.9908 146.249 21.2655 151.112 20.5809C157.005 19.7414 161.312 18.576 164.966 16.8238C169.183 14.8026 170.025 12.7162 167.671 10.1245L167.279 9.69254L168.66 9.74144L170.033 9.79034L169.624 9.52139C169.101 9.18724 167.597 8.47004 166.804 8.18479C165.914 7.86695 164.156 7.435 163.012 7.24755C161.533 7.00305 161.59 6.9786 162.031 7.6632C162.751 8.77159 163.306 10.1897 163.617 11.73C163.715 12.1946 163.805 12.5939 163.813 12.6102C163.829 12.6184 163.936 12.4146 164.05 12.162C164.165 11.9012 164.377 11.4366 164.516 11.1269L164.769 10.5646L165.088 11.0047C166.216 12.5613 165.685 13.8246 163.429 14.9411C158.942 17.166 147.541 18.8775 130.247 19.9289L127.901 20.0756V20.2956C127.901 20.7031 128.301 22.6754 128.555 23.523C129.053 25.2101 129.683 26.5467 130.663 28.0299C131.513 29.3176 133.115 30.915 134.439 31.7952C137.357 33.7268 140.446 34.607 144.533 34.6722C145.522 34.6885 146.462 34.6803 146.617 34.664Z" fill="#F4D800"/>
<path d="M142.478 0.184798C140.86 0.380397 139.225 0.779745 137.844 1.31764C131.731 3.69743 127.979 8.63631 128.02 14.2353C128.028 14.7488 128.045 15.0992 128.069 15.0096C128.086 14.9199 128.159 14.5532 128.224 14.1946C129.14 9.29645 132.94 5.25407 138.269 3.49368C140.141 2.87428 141.996 2.60534 143.892 2.69499C144.979 2.73573 146.573 2.94763 146.794 3.06173C146.851 3.09433 146.508 3.20028 146.017 3.30623C142.454 4.04788 138.809 5.58007 136.561 7.26711C135.417 8.12286 135.4 8.15546 136.308 7.76426C140.476 5.95497 145.167 4.91177 149.63 4.80583L151.428 4.76508L152 5.11552C152.882 5.64527 154.648 7.02261 154.558 7.10411C154.542 7.12041 153.871 7.16931 153.062 7.21821C147.153 7.60126 141.996 8.70966 137.329 10.6004C136.316 11.0161 133.472 12.369 133.521 12.4179C133.537 12.4342 134.109 12.3038 134.804 12.1245C139.029 11.0324 144.448 10.25 150.651 9.83435C152.572 9.7121 155.702 9.5491 156.364 9.5491C156.511 9.5491 157.173 10.7553 157.557 11.7088L157.835 12.4016L157.656 12.4505C157.557 12.4749 156.977 12.5238 156.372 12.5564C150.635 12.858 142.846 13.5833 137.983 14.2679C132.09 15.1074 127.783 16.2728 124.13 18.0251C119.912 20.0462 119.071 22.1326 121.425 24.7243L121.817 25.1563L120.436 25.1074L119.062 25.0585L119.471 25.3274C119.994 25.6616 121.498 26.3788 122.291 26.664C123.182 26.9819 124.939 27.4138 126.083 27.6013C127.562 27.8458 127.505 27.8702 127.064 27.1856C126.345 26.0772 125.789 24.6591 125.478 23.1188C125.38 22.6542 125.29 22.2549 125.282 22.2386C125.266 22.2304 125.16 22.4342 125.045 22.6868C124.931 22.9476 124.718 23.4122 124.579 23.7219L124.326 24.2842L124.007 23.8441C122.879 22.2875 123.411 21.0242 125.666 19.9077C130.153 17.6828 141.555 15.9713 158.849 14.9199L161.194 14.7732V14.5532C161.194 14.1457 160.794 12.1734 160.541 11.3258C160.042 9.63875 159.413 8.30216 158.432 6.81886C157.582 5.53117 155.98 3.93378 154.656 3.05358C151.738 1.12204 148.649 0.241847 144.562 0.176648C143.573 0.160348 142.634 0.168498 142.478 0.184798Z" fill="#235FC8"/>
<path d="M173.944 8.34291C172.089 12.7765 170.479 16.5907 170.373 16.8189L170.185 17.2508H174.982L175.669 15.3763L176.355 13.5018L179.862 13.4855L183.368 13.4692L184.063 15.36L184.765 17.2508H187.168C189.056 17.2508 189.563 17.2264 189.53 17.1449C189.506 17.096 188.313 14.1864 186.874 10.6901C185.436 7.19376 183.891 3.43663 183.441 2.33639L182.616 0.339647L179.976 0.315197L177.336 0.298897L173.944 8.34291ZM179.911 3.35513C179.911 3.73818 180.352 5.13182 181.218 7.47086C181.807 9.0438 182.281 10.3885 182.281 10.4537C182.281 10.5515 181.889 10.5678 179.845 10.5678C178.505 10.5678 177.385 10.5515 177.361 10.5271C177.336 10.5026 177.835 9.10085 178.464 7.40566C179.093 5.71862 179.641 4.10493 179.69 3.81968C179.739 3.54258 179.813 3.31438 179.845 3.31438C179.878 3.31438 179.911 3.33068 179.911 3.35513Z" fill="#213459"/>
<path d="M192.007 8.77485V17.2508H203.776V14.1538H196.42V10.2418H202.877V7.14486H196.42V3.39588H203.367V0.298897H192.007V8.77485Z" fill="#213459"/>
<path d="M180.973 27.5198V34.7732H183.343V32.3527C183.343 30.902 183.376 29.9647 183.417 30.0055C183.458 30.0544 184.03 31.1383 184.692 32.426L185.893 34.7732H187.275C188.035 34.7732 188.656 34.7569 188.656 34.7325C188.656 34.6999 188.01 33.5507 187.226 32.1734C186.441 30.796 185.795 29.6225 185.795 29.5736C185.795 29.5247 186.4 28.4815 187.136 27.259L188.476 25.034L187.119 25.0096C186.376 25.0014 185.738 25.0177 185.705 25.0503C185.673 25.0911 185.133 26.1017 184.512 27.316L183.384 29.5165L183.36 24.8873L183.343 20.2663H180.973V27.5198Z" fill="#213459"/>
<path d="M204.585 20.5352C203.841 21.0324 203.67 22.0022 204.185 22.8335C204.283 22.9884 204.479 23.184 204.618 23.2492C204.961 23.4285 205.59 23.4203 205.917 23.2247C206.824 22.7031 206.792 20.9183 205.868 20.4782C205.46 20.2907 204.92 20.307 204.585 20.5352Z" fill="#213459"/>
<path d="M169.94 25.2296C169.94 27.5116 169.98 29.7529 170.021 30.2174C170.332 33.3225 171.591 34.8058 174.059 34.9851C176.159 35.14 177.745 34.0642 178.44 32.0185C178.799 30.9264 178.848 30.2174 178.848 25.4986V21.0813H176.478V25.2541C176.47 30.3723 176.413 30.9835 175.808 31.7088C175.146 32.5075 173.822 32.5401 173.103 31.774C172.972 31.6436 172.767 31.2769 172.653 30.9753L172.432 30.413L172.408 25.7431L172.383 21.0813H169.94V25.2296Z" fill="#213459"/>
<path d="M198.137 24.8058C197.63 24.8873 196.698 25.1726 196.33 25.36L195.93 25.5638V26.664C195.93 27.2671 195.946 27.7643 195.962 27.7643C195.979 27.7643 196.183 27.642 196.412 27.4872C197.082 27.0308 197.671 26.8433 198.439 26.8352C198.995 26.827 199.142 26.8515 199.338 26.9982C199.649 27.2264 199.845 27.585 199.902 28.0251L199.951 28.3918L199.15 28.5385C196.902 28.9297 196.371 29.1335 195.832 29.8425C195.374 30.4456 195.235 30.9753 195.243 32.0837C195.243 32.8498 195.276 33.1025 195.423 33.4774C195.66 34.0642 196.077 34.545 196.567 34.7814C197.041 35.0177 198.006 35.0422 198.472 34.8384C198.88 34.6591 199.412 34.1701 199.673 33.7219L199.894 33.347L199.918 34.056L199.943 34.7732H202.141V31.448C202.133 27.8621 202.084 27.2508 201.708 26.4358C201.324 25.6045 200.678 25.0666 199.779 24.8629C199.346 24.7569 198.578 24.7325 198.137 24.8058ZM199.91 30.8368C199.845 31.9289 199.518 32.5238 198.823 32.7846C198.169 33.0373 197.573 32.7113 197.417 32.0185C197.278 31.3991 197.515 30.7879 198.014 30.5108C198.169 30.4293 199.469 30.1522 199.804 30.1359C199.943 30.1277 199.951 30.1766 199.91 30.8368Z" fill="#213459"/>
<path d="M212.513 24.871C212.031 25.0259 211.36 25.6208 211.042 26.1669L210.805 26.5825V24.9933H208.434V34.7732H210.796L210.821 31.5703L210.845 28.3755L211.074 27.911C211.45 27.1449 212.08 26.8596 212.676 27.1693C213.428 27.5605 213.502 27.9517 213.502 31.7333V34.7732H215.888L215.847 31.0813C215.823 28.0169 215.79 27.316 215.676 26.8841C215.439 25.955 214.981 25.2867 214.376 24.9851C213.943 24.7651 213.02 24.708 212.513 24.871Z" fill="#213459"/>
<path d="M220.277 24.8547C218.888 25.2459 217.842 26.5581 217.474 28.3674C217.319 29.1171 217.294 30.7879 217.425 31.5295C217.891 34.0805 219.656 35.3356 222.198 34.9199C222.688 34.8384 223.162 34.6999 223.457 34.5613L223.922 34.325L223.947 33.2573L223.971 32.1897L223.416 32.4668C222.141 33.0943 220.825 32.9884 220.146 32.2223C219.893 31.937 219.787 31.6599 219.664 30.9998L219.615 30.6982H224.723L224.666 29.5328C224.601 28.0658 224.462 27.4057 224.045 26.5662C223.465 25.3926 222.623 24.8466 221.307 24.7814C220.915 24.7651 220.498 24.7895 220.277 24.8547ZM221.887 27.0389C222.19 27.3079 222.386 27.7887 222.459 28.3918L222.517 28.9053H221.07C219.435 28.9053 219.689 28.9542 219.918 28.1962C220.065 27.6991 220.261 27.153 220.58 26.9411C220.915 26.7129 221.593 26.7618 221.887 27.0389Z" fill="#213459"/>
<path d="M193.478 24.8873C192.963 25.0666 192.473 25.6208 192.17 26.3625L192.015 26.7455V25.8653L192.007 24.9933H189.637V34.7732H192.007V32.0593C192.007 29.0846 192.056 28.6608 192.481 28.0495C192.603 27.8784 192.824 27.6583 192.971 27.5768C193.306 27.3812 194.009 27.3731 194.369 27.5524L194.622 27.6909V26.3054C194.622 25.1237 194.606 24.9199 194.491 24.8792C194.336 24.8221 193.65 24.8221 193.478 24.8873Z" fill="#213459"/>
<path d="M204.021 29.8832V34.7732H206.391V24.9933H204.021V29.8832Z" fill="#213459"/>
<mask id="mask0_2738_37" style="mask-type:luminance" maskUnits="userSpaceOnUse" x="0" y="0" width="34" height="35">
<path d="M24.0663 28.1083L17.4281 22.565C17.3129 22.4728 17.1631 22.4152 17.0133 22.4152C16.8173 22.4152 16.6445 22.5074 16.5292 22.6457L15.1463 24.3052C15.0541 24.4205 14.9965 24.5703 14.9965 24.7316C14.9965 24.916 15.0771 25.0774 15.2039 25.1926L26.4749 34.6082C26.5901 34.7004 26.7284 34.7465 26.8898 34.7465C27.2009 34.7465 27.4545 34.5045 27.5006 34.2048L30.0014 19.7761C30.0014 19.7761 30.0014 19.6954 30.0014 19.6493C30.0014 19.3266 29.7479 19.0616 29.4252 19.027L27.3392 18.6697C27.3392 18.6697 27.2586 18.6697 27.2125 18.6697C26.8898 18.6697 26.6362 18.9233 26.5901 19.2229L25.115 27.7511C25.0574 28.0392 24.8038 28.2582 24.5042 28.2697C24.3313 28.2697 24.1815 28.2121 24.0547 28.1083M7.30959 12.8844L15.4344 9.89957C15.5727 9.84195 15.6995 9.74975 15.7686 9.59994C15.8608 9.42707 15.8723 9.23115 15.8032 9.06981L15.0541 7.04149C15.008 6.9032 14.9043 6.77643 14.7544 6.69575C14.5931 6.60356 14.4087 6.59203 14.2474 6.64966L0.464021 11.7089C0.325727 11.7665 0.210481 11.8587 0.141334 11.997C-0.00848491 12.2736 0.0606623 12.6078 0.302677 12.8038L11.5391 22.1847C11.5391 22.1847 11.6082 22.2308 11.6428 22.2539C11.9309 22.4152 12.2767 22.323 12.4611 22.0695L13.821 20.4445C13.821 20.4445 13.8786 20.3754 13.8901 20.3408C14.0399 20.0642 13.9592 19.7185 13.7172 19.5226L7.0791 13.9793C6.86014 13.7833 6.79099 13.4607 6.94081 13.1841C7.02148 13.0342 7.15977 12.9305 7.30959 12.8844ZM28.0077 5.34738L19.8829 8.30919C19.7446 8.35529 19.5832 8.35529 19.4334 8.30919C19.249 8.24004 19.1222 8.10175 19.0646 7.92888L18.327 5.90056C18.2694 5.76227 18.2694 5.60092 18.327 5.4511C18.3962 5.27824 18.523 5.15147 18.6843 5.09384L32.4677 0.0345736C32.6059 -0.0115245 32.7558 -0.0115245 32.9056 0.0345736C33.1937 0.149819 33.355 0.449457 33.2974 0.749095L30.7735 15.1663C30.7735 15.1663 30.7505 15.247 30.739 15.2931C30.6237 15.5927 30.301 15.754 29.9899 15.6849L27.9039 15.3161C27.9039 15.3161 27.8233 15.2931 27.7772 15.2815C27.4775 15.1663 27.3162 14.8551 27.3853 14.544L28.8835 6.02733C28.9296 5.73922 28.7683 5.43958 28.4802 5.33586C28.3188 5.27824 28.1575 5.27824 28.0077 5.33586V5.34738Z" fill="white"/>
</mask>
<g mask="url(#mask0_2738_37)">
<path d="M33.3665 -0.011528H-0.00854492V34.7695H33.3665V-0.011528Z" fill="url(#paint0_linear_2738_37)"/>
</g>
<mask id="mask1_2738_37" style="mask-type:luminance" maskUnits="userSpaceOnUse" x="36" y="7" width="19" height="21">
<path d="M45.7208 27.1057C49.0514 27.1057 51.1835 25.815 52.843 24.0517L50.4113 21.7929C49.0169 23.1067 47.6685 23.9941 45.5019 23.9941C42.4479 23.9941 40.0969 21.9312 39.8088 18.7735C39.4054 14.2674 42.6438 10.3029 46.7696 10.3029C49.2934 10.3029 50.8032 11.4554 52.117 13.2186L54.7446 11.3171C53.085 8.81627 50.492 7.19131 46.8618 7.19131C40.4311 7.19131 35.7291 12.7116 36.2938 18.9002C36.7548 23.9595 40.7768 27.0942 45.7208 27.0942" fill="white"/>
</mask>
<g mask="url(#mask1_2738_37)">
<path d="M54.7331 7.20284H35.7291V27.1057H54.7331V7.20284Z" fill="url(#paint1_linear_2738_37)"/>
</g>
<path d="M60.5761 17.5403L61.7861 10.6141H65.1974C67.6752 10.6141 69.1388 11.6859 69.3117 13.4952C69.5422 16.0537 67.4793 17.5403 63.9643 17.5403H60.5876H60.5761ZM55.5283 26.7715H58.9396L60.0575 20.5367H64.068C69.5076 20.5367 73.23 17.8745 72.8036 13.2186C72.4579 9.34639 69.3462 7.52551 65.0361 7.52551H58.9626L55.5283 26.7715Z" fill="#5B5B5B"/>
<path d="M77.7706 26.7715H81.1473L84.04 10.6602H90.1364L90.7127 7.52551H75.0969L74.5322 10.6602H80.6633L77.7706 26.7715Z" fill="#5B5B5B"/>
<path d="M90.4938 26.7715H104.001L104.565 23.6944H94.4582L97.3393 7.52551H93.9281L90.4938 26.7715Z" fill="#5B5B5B"/>
<path d="M77.5171 33.0754L77.7591 31.6925H78.4391C78.9347 31.6925 79.2228 31.9114 79.2573 32.2687C79.3034 32.7758 78.8886 33.0754 78.1971 33.0754H77.5287H77.5171ZM76.5145 34.9193H77.1944L77.4134 33.6747H78.2086C79.2919 33.6747 80.0295 33.1445 79.9488 32.2226C79.8797 31.4504 79.2573 31.0932 78.4045 31.0932H77.1944L76.5145 34.9308V34.9193ZM74.1289 34.9769C75.1085 34.9769 75.6502 34.4238 75.8346 33.3635L76.2379 31.0817H75.5695L75.1777 33.2598C75.0509 33.9974 74.6821 34.3546 74.1404 34.3546C73.5988 34.3546 73.3107 34.0435 73.2646 33.6171C73.2531 33.4557 73.2646 33.3174 73.2761 33.1906L73.6449 31.0817H72.9765L72.6192 33.0984C72.5846 33.3059 72.5731 33.5133 72.5846 33.7092C72.6538 34.4814 73.2185 34.9769 74.1174 34.9769H74.1289ZM69.8187 34.3661C69.1388 34.3661 68.6893 33.9052 68.6317 33.2713C68.5626 32.4876 69.1042 31.6464 69.9916 31.6464C70.6716 31.6464 71.121 32.1189 71.1786 32.7412C71.2478 33.5249 70.7061 34.3661 69.8187 34.3661ZM69.8072 34.9885C71.1325 34.9885 71.9854 33.8706 71.8816 32.7066C71.801 31.7501 71.0403 31.024 70.0031 31.024C68.6778 31.024 67.8365 32.1419 67.9402 33.3059C68.0209 34.2624 68.7815 34.9885 69.8072 34.9885ZM64.8286 32.9947L65.0591 31.704H65.9004C66.4305 31.704 66.6956 31.9114 66.7302 32.2456C66.7763 32.7066 66.3729 32.9947 65.7045 32.9947H64.8286ZM63.8145 34.9308H64.4944L64.7249 33.594H65.5201L66.2922 34.9308H67.0644L66.2231 33.5249C67.0068 33.375 67.4793 32.9141 67.4101 32.188C67.3525 31.4965 66.7878 31.0932 65.8658 31.0932H64.4714L63.7914 34.9308H63.8145ZM61.6018 35C62.1549 35 62.5813 34.8617 62.9501 34.6312L63.3074 32.7988H61.6709L61.5672 33.3866H62.5468L62.3854 34.1933C62.201 34.297 61.936 34.3892 61.5902 34.3892C60.9679 34.3892 60.4608 34.0089 60.4032 33.3289C60.3225 32.4531 60.9449 31.6579 61.8668 31.6579C62.4085 31.6579 62.7196 31.8768 62.9732 32.1419L63.4342 31.7155C63.146 31.3582 62.662 31.0356 61.8553 31.0356C60.4954 31.0356 59.585 32.165 59.6887 33.352C59.7924 34.4468 60.7028 35 61.5902 35H61.6018ZM54.5142 34.9308H57.1994L57.3146 34.32H55.2978L55.8741 31.1047H55.1941L54.5142 34.9424V34.9308ZM51.5985 33.4096L52.5319 31.8653L52.9238 33.4096H51.61H51.5985ZM49.962 34.9308H50.688L51.2412 34.0089H53.0505L53.281 34.9308H53.9725L52.9699 31.0701H52.3245L49.9505 34.9308H49.962ZM48.2448 34.9308H48.9132L49.4895 31.727H50.6995L50.8148 31.1047H47.7032L47.5879 31.727H48.8095L48.2333 34.9308H48.2448ZM45.6979 34.9308H46.3778L47.0578 31.0932H46.3778L45.6979 34.9308ZM42.9781 33.0869L43.2201 31.704H43.9001C44.3956 31.704 44.6837 31.9229 44.7183 32.2802C44.7644 32.7873 44.3495 33.0869 43.6581 33.0869H42.9896H42.9781ZM41.9755 34.9308H42.6554L42.8744 33.6862H43.6696C44.7529 33.6862 45.4905 33.1561 45.4098 32.2341C45.3406 31.462 44.7183 31.1047 43.8655 31.1047H42.6554L41.9755 34.9424V34.9308ZM39.0598 33.4096L39.9933 31.8653L40.3851 33.4096H39.0713H39.0598ZM37.4233 34.9308H38.1493L38.7025 34.0089H40.5119L40.7423 34.9308H41.4338L40.4312 31.0701H39.7858L37.4118 34.9308H37.4233ZM35.8444 35C36.5013 35 36.9277 34.7465 37.2619 34.3892L36.7779 33.9397C36.5013 34.2048 36.2363 34.3777 35.7983 34.3777C35.1875 34.3777 34.7265 33.9628 34.6689 33.3405C34.5883 32.4416 35.2336 31.6579 36.0519 31.6579C36.5589 31.6579 36.8586 31.8884 37.1121 32.2341L37.6307 31.8538C37.2965 31.3582 36.7894 31.0356 36.0634 31.0356C34.7842 31.0356 33.8507 32.1304 33.9544 33.3635C34.0466 34.3661 34.8418 35 35.8329 35H35.8444Z" fill="#5B5B5B"/>
<defs>
<linearGradient id="paint0_linear_2738_37" x1="17.0017" y1="31.7155" x2="16.3909" y2="5.20908" gradientUnits="userSpaceOnUse">
<stop stop-color="#3FD1FF"/>
<stop offset="1" stop-color="#216EA8"/>
</linearGradient>
<linearGradient id="paint1_linear_2738_37" x1="45.2369" y1="25.2157" x2="45.2369" y2="9.98025" gradientUnits="userSpaceOnUse">
<stop stop-color="#3FD1FF"/>
<stop offset="1" stop-color="#216EA8"/>
</linearGradient>
</defs>
</svg>
