<svg xmlns="http://www.w3.org/2000/svg" width="600" height="400" viewBox="0 0 600 400"><rect width="100%" height="100%" fill="#3D96F4"/><path fill="#fff" d="M147.23 143.59c10.21 0 17.07-6.69 17.07-15.84 0-8.45-6.86-14.78-17.07-14.78s-17.07 6.69-17.07 15.31c0 8.62 6.86 15.31 17.07 15.31ZM133.5 251.48h27.46v-94.69H133.5Zm174.24-96.1c-14.25 0-26.57 5.81-34.14 15.49-6.69-10.38-17.95-15.49-31.15-15.49-12.15 0-22.71 4.23-29.75 12.32v-10.91h-26.22v94.69h27.46v-47.52c0-16.9 8.62-24.82 20.76-24.82 11.44 0 17.96 7.04 17.96 22.36v49.98h27.45v-47.52c0-16.9 8.63-24.82 20.95-24.82 11.08 0 17.95 7.04 17.95 22.36v49.98h27.45v-54.21c0-28.86-16.19-41.89-38.72-41.89Zm136.05 1.41v12.15c-7.21-9.16-18.13-13.56-31.33-13.56-26.22 0-47.34 18.13-47.34 45.76 0 27.64 21.12 45.76 47.34 45.76 12.32 0 22.71-3.87 29.92-11.79v4.05c0 17.07-8.44 25.87-27.8 25.87-12.15 0-25.35-4.22-33.44-10.73l-10.92 19.71c11.09 8.62 28.52 13.02 46.47 13.02 34.14 0 53.15-16.19 53.15-51.39v-78.85Zm-25.87 67.59c-14.43 0-24.99-9.33-24.99-23.24 0-13.9 10.56-23.23 24.99-23.23 14.43 0 24.82 9.33 24.82 23.23 0 13.91-10.39 23.24-24.82 23.24Z"/></svg>